<?xml version="1.0" standalone="no"?>
<!DOCTYPE svg PUBLIC "-//W3C//DTD SVG 20010904//EN"
 "http://www.w3.org/TR/2001/REC-SVG-20010904/DTD/svg10.dtd">
<svg version="1.0" xmlns="http://www.w3.org/2000/svg"
 width="1280.000000pt" height="1210.000000pt" viewBox="0 0 1280.000000 1210.000000"
 preserveAspectRatio="xMidYMid meet">
<g transform="translate(0.000000,1210.000000) scale(0.100000,-0.100000)"
fill="#000000" stroke="none">
<path d="M12043 12087 c-5 -7 -29 -64 -53 -127 -87 -232 -1454 -3674 -1542
-3885 -73 -172 -119 -262 -173 -330 -87 -111 -182 -326 -702 -1590 -793 -1927
-847 -2053 -947 -2203 -70 -106 -197 -217 -322 -280 -102 -52 -306 -79 -471
-62 -207 21 -404 73 -923 245 -920 304 -1596 492 -2485 690 -821 184 -1429
281 -2160 347 -193 17 -736 17 -838 0 -209 -36 -492 -161 -677 -300 -190 -143
-383 -369 -481 -563 -86 -171 -184 -448 -218 -614 -43 -211 -60 -487 -42 -655
6 -58 16 -161 22 -230 48 -563 251 -1132 555 -1556 376 -525 831 -841 1333
-924 244 -41 604 -59 811 -41 74 6 200 16 280 22 1269 92 3936 803 4897 1304
249 129 451 283 704 535 356 354 750 870 933 1221 131 251 628 1407 926 2154
254 635 360 933 581 1630 l131 410 -7 85 c-3 47 -6 101 -7 121 -1 67 35 162
650 1729 236 602 527 1343 646 1647 119 303 241 612 272 685 30 73 56 137 57
142 3 16 -89 72 -275 166 -97 50 -178 90 -181 90 -8 0 -337 -831 -427 -1080
-101 -277 -131 -358 -570 -1505 -194 -506 -403 -1057 -466 -1225 -145 -384
-135 -359 -151 -376 -34 -33 -133 -3 -133 40 0 53 81 262 704 1826 216 542
483 1212 594 1490 110 278 234 586 276 685 42 98 74 185 72 192 -3 7 -45 33
-95 57 -67 34 -91 42 -98 33z m-1478 -4459 c49 -22 44 -101 -8 -126 -22 -11
-39 -11 -85 -2 -31 7 -65 16 -74 21 -29 16 -21 54 17 88 28 25 45 31 80 31 24
0 56 -5 70 -12z m-7785 -3968 c80 -6 287 -26 460 -45 335 -36 535 -51 825 -60
981 -32 1882 -155 2665 -365 102 -27 262 -68 355 -90 241 -58 381 -103 498
-163 193 -98 314 -252 369 -472 31 -124 31 -334 0 -446 -56 -206 -217 -416
-397 -518 -105 -60 -195 -93 -567 -205 -175 -53 -483 -155 -685 -227 -430
-154 -674 -235 -978 -325 -918 -272 -1669 -404 -2301 -404 -381 0 -639 34
-905 119 -112 36 -163 67 -258 156 -210 199 -355 507 -471 1005 -166 713 -189
1100 -82 1410 126 364 456 582 962 633 79 8 375 6 510 -3z"/>
<path d="M4710 3215 c-102 -19 -513 -90 -915 -160 -1879 -325 -1987 -344
-2018 -362 -44 -25 -80 -97 -72 -143 14 -72 71 -120 145 -120 22 0 251 36 508
81 257 44 751 130 1097 190 347 60 828 143 1070 185 274 47 451 82 470 93 103
59 98 203 -8 251 -53 25 -55 25 -277 -15z"/>
<path d="M5515 2760 c-711 -123 -866 -150 -2473 -425 -1528 -262 -1463 -249
-1497 -315 -8 -16 -15 -50 -15 -75 0 -39 5 -52 38 -86 30 -33 46 -42 82 -46
31 -3 352 48 1045 167 550 94 1023 175 1050 180 1351 229 2345 404 2370 418
42 24 79 101 71 147 -12 63 -92 129 -151 124 -5 0 -239 -41 -520 -89z"/>
<path d="M6280 2299 c-316 -54 -1077 -185 -1690 -290 -613 -105 -1191 -204
-1285 -220 -93 -16 -443 -76 -777 -133 -651 -112 -649 -111 -683 -176 -46 -89
25 -210 122 -210 18 0 387 61 820 135 1267 217 3315 568 3738 640 238 41 400
73 418 83 66 39 92 143 51 200 -21 28 -98 73 -124 71 -8 0 -274 -45 -590 -100z"/>
<path d="M5160 1519 c-569 -98 -1429 -247 -1910 -330 -561 -96 -886 -156 -905
-167 -17 -10 -40 -38 -54 -65 -29 -58 -23 -103 20 -152 57 -64 47 -65 624 35
626 108 2071 356 2795 481 328 56 536 97 554 107 50 29 71 67 71 127 0 48 -4
58 -35 90 -30 31 -84 57 -115 54 -5 0 -476 -81 -1045 -180z"/>
</g>
</svg>
