<svg width="100" height="100" fill="none" xmlns="http://www.w3.org/2000/svg"><path d="M15.3 17.4l-6.7 3.3v58.5l6.7 3.3V17.4z" fill="#8C3123"/><path d="M51 74l-35.7 8.5V17.4L51 25.7V74z" fill="#E05243"/><path d="M34.9 60.7L50 62.6l.1-.2.1-24.8-.2-.2-15.1 1.9v21.4z" fill="#8C3123"/><path d="M50 74.1l34.7 8.4.1-.1v-65l-.1-.1L50 25.8v48.3z" fill="#8C3123"/><path d="M65.1 60.7L50 62.6V37.4l15.1 1.9v21.4z" fill="#E05243"/><path d="M65.1 29L50 31.7 34.9 29 50 25l15.1 4z" fill="#5E1F18"/><path d="M65.1 71L50 68.3 34.9 71 50 75.3 65.1 71z" fill="#F2B0A9"/><path d="M34.9 29L50 25.2h.1V.1L50 0 34.9 7.6V29z" fill="#8C3123"/><path d="M65.1 29L50 25.2V0l15.1 7.6V29z" fill="#E05243"/><path d="M50 100l-15.1-7.6V71L50 74.8l.2.3-.1 24.5-.1.4z" fill="#8C3123"/><path d="M50 100l15.1-7.6V71L50 74.8V100zm34.7-82.6l6.7 3.3v58.5l-6.7 3.3V17.4z" fill="#E05243"/></svg>