<svg width="100" height="100" fill="none" xmlns="http://www.w3.org/2000/svg"><path d="M87.9 14.1l7.6 3.7V82l-7.6 3.7-12-35.7 12-35.9z" fill="#5294CF"/><path d="M12.1 14.1l-7.6 3.7V82l7.6 3.7 19-35.7-19-35.9zM50 76.5l37.9 9.2V14.1L50 23.3v53.2z" fill="#205B99"/><path d="M50 76.5l-37.9 9.2V14.1L50 23.3v53.2z" fill="#5294CF"/><path d="M59.1 100l14.5-7.2V7.2L59.1 0 44.7 47.6 59.1 100z" fill="#5294CF"/><path d="M40.9 100l-14.5-7.2V7.2L40.9 0l12.9 50-12.9 50z" fill="#205B99"/><path d="M59.1 0H40.9v100h18.2V0z" fill="#2E73B8"/></svg>