<svg width="100" height="100" fill="none" xmlns="http://www.w3.org/2000/svg"><path d="M8.6 79.3l5.3 2.6.9-1.5V19.2l-.9-1.1-5.3 2.6v58.6z" fill="#9D5025"/><path d="M24 20.6l-10.1-2.5V82L24 79.6v-59z" fill="#F68536"/><path d="M55.1 25.4l7.2-3.7 24 9.3-6.3.8-24.9-6.4z" fill="#6B3A19"/><path d="M55.4 74.6l7.1 3.7 24-9.3-6.4-.8-24.7 6.4z" fill="#FBBF93"/><path d="M57.2 64.3L69.9 66l.7-1.3V35.6l-.7-1.6-12.6 1.7v28.6M20.1 14.9l7.8-3.9.8 1.6v74.7l-.8 1.7-7.8-3.9V14.9z" fill="#9D5025"/><path d="M43.7 83.8l-15.8 5.1V11l15.8 5.1v67.7z" fill="#F68536"/><path d="M37.6 93.7L50 100l1.3-1.5V1.8L50 0 37.6 6.3v87.4zm42.1-61.9l6.4-.8.5.8v36.5l-.5.9-6.4-.8V31.8z" fill="#9D5025"/><path d="M69.9 34v32.1L83.1 50 69.9 34z" fill="#F68536"/><path d="M86.1 18.1L50 0v100l41.4-20.7V20.7l-5.3-2.6zm0 51.1l-23.8 7.1V23.7l23.8 7.1v38.4z" fill="#F68536"/></svg>