<svg width="100" height="100" fill="none" xmlns="http://www.w3.org/2000/svg"><g clip-path="url(#clip0)"><path d="M51.9 93.5c-16 0-31.1-6.8-41.8-18.8-1.1-1.3-1.5-3.1-.9-4.7.1-.2 2.3-6.2 5.6-12.2 5.2-9.6 10.1-14 15.3-14.1 5.1 0 9 4.1 12 7.3.9.9 2.2 2.4 3.2 3.1 1-1 2.9-3.4 6-8.9 2.6-4.5 4.6-8.8 4.6-8.9 1.1-2.3 3.8-3.3 6.2-2.2 2.3 1.1 3.3 3.8 2.2 6.2-.1.2-2.6 5.5-5.7 10.8-5.3 9.2-9 12.7-13 12.7-4.2 0-7.3-3.3-10.3-6.4-1.2-1.3-2.5-2.6-3.6-3.5-1-.7-1.5-.9-1.6-.9-.3.1-3 1.1-7.5 9.6-1.6 3-2.9 5.9-3.8 8 8.9 8.9 21 13.8 33.7 13.6h.1c9.1 0 17.4-1.3 23.9-3.6 6.4-2.3 11.1-5.7 14.1-10.1-1.1-12.6-5.2-26-11-35.9-3.4-5.9-7.4-10.5-11.7-13.7-4.7-3.4-9.8-5.1-15.3-5.1-5.8 0-11.2 1.2-16.1 3.5-4.4 2.1-8.5 5.2-12.2 9.2-6 6.6-11.2 15.9-15.3 27.7-.9 2.4-3.5 3.7-5.9 2.8-2.4-.9-3.7-3.5-2.8-5.9 4.6-12.9 10.4-23.3 17.4-30.9C27.2 11.8 39 6.5 52.7 6.5c14 0 26.1 8.1 35 23.4 6.7 11.5 11.3 27 12.3 41.4.1.9-.1 1.8-.6 2.6-7.2 12.6-23.8 19.5-46.6 19.5-.4.1-.6.1-.9.1z" fill="#1D2D35"/></g><defs><clipPath id="clip0"><path fill="#fff" d="M0 0h100v100H0z"/></clipPath></defs></svg>