<svg width="18" height="18" fill="none" xmlns="http://www.w3.org/2000/svg"><path d="M17.544 7.313a3.35 3.35 0 010 3.374l-2.799 4.808a3.408 3.408 0 01-2.946 1.687H6.2a3.408 3.408 0 01-2.946-1.687l-2.8-4.808a3.35 3.35 0 010-3.374l2.8-4.808A3.408 3.408 0 016.2.818h5.6c1.215 0 2.338.643 2.946 1.687l2.8 4.808z" fill="#4487F9"/><path d="M13.91 13.197l-1.79-1.883c.612-.764.97-1.73.97-2.747 0-2.442-1.993-4.476-4.5-4.476-2.506 0-4.5 1.983-4.5 4.476s1.994 4.476 4.5 4.476a4.446 4.446 0 002.762-.966l1.738 1.832.82-.712zm-5.268-1.222a3.417 3.417 0 01-3.426-3.408 3.418 3.418 0 013.426-3.408 3.418 3.418 0 013.426 3.408c0 1.88-1.587 3.408-3.426 3.408z" fill="#fff"/><path d="M9 7.79a.418.418 0 00-.41-.426.417.417 0 00-.408.426v3.238c0 .236.183.427.409.427A.418.418 0 009 11.028V7.79zm-2.455 2.489c0 .095.044.185.12.252.258.225.699.066.699-.252v-.922c0-.197-.184-.357-.41-.357-.225 0-.409.16-.409.357v.922zm3.273-.191c0 .488.44.732.699.387a.652.652 0 00.12-.387v-.54c0-.303-.184-.548-.41-.548-.226 0-.409.245-.409.547v.541z" fill="#fff"/></svg>