<svg width="100" height="100" fill="none" xmlns="http://www.w3.org/2000/svg"><path d="M79.272 40.14c.722 9.708-12.493 18.964-29.505 20.65-17.012 1.687-31.403-4.819-32.113-14.528-.723-9.723 12.492-18.964 29.504-20.65 17.013-1.701 31.403 4.804 32.114 14.527z" fill="#BBE6FB"/><path opacity=".35" d="M47.656 26.746c-6.492-.128-14.085 2.863-19.744 5.655a21.605 21.605 0 00-.906 6.208c0 11.523 8.99 20.863 20.086 20.863 11.097 0 20.086-9.34 20.086-20.863a21.5 21.5 0 00-2.486-10.063c-4.52-.808-10.741-1.687-17.036-1.8z" fill="#fff"/><path d="M47.09 26.74c-3.588-.256-9.786 1.913-14.954 4.081a20.215 20.215 0 00-1.225 6.945c0 10.092 7.912 18.284 16.277 18.284 8.316 0 15.665-8.192 16.277-18.284.196-3.288-.783-6.378-2.13-9.042-5.34-1.092-11.024-1.758-14.245-1.985z" fill="#fff"/><path d="M37.879 36.438c.44-1.134 1.114-1.686 1.751-2.636-.073-.227-.233-.964-.233-1.219 0-1.134.797-2.055 1.776-2.055.233 0 .454.057.65.142 2.939-2.594 6.81-3.728 10.704-2.722.355.1.698.199 1.041.326-3.846-.623-8.181.964-11.133 3.714.086.24.343.95.343 1.233 0 1.134-.637 1.417-1.617 1.417-.22 0-.44-.042-.637-.141-.661 1.034-1.482 3.004-1.886 4.237 1.63 1.687 3.099 2.297 5.022 3.133 0-.1.06-.199.06-.312 0-3.43 2.61-6.208 5.561-6.208 2.658 0 4.85 2.225 5.28 5.16 1.322-.979 2.596-1.716 3.575-3.161-.232-.326-.477-1.234-.477-1.673 0-1.035.722-1.87 1.617-1.87.122 0 .244.013.367.056a17.99 17.99 0 001.102-3.714c-4.63-3.968-13.582-3.43-13.582-3.43s-7.129-.425-11.942 2.297c.355 2.707 1.286 5.272 2.658 7.426z" fill="#373535"/><path d="M59.985 34.903c.33.34.502.637.649.935.428.907-.441 1.73-1.323 1.73-.086 0-.184-.015-.27-.03-1.004 1.815-2.755 4.14-4.323 5.316 2.388.453 4.654 1.559 6.442 3.274 1.31-2.707 2.315-6.633 2.315-9.95 0-2.537-.967-4.394-2.425-5.754-.073 1.346-.698 3.245-1.065 4.479zM40.564 52.074c.796-2.551 2.756-4.521 4.617-6.265-.269-.425-.673-1.502-.845-1.998-2.265-.794-4.262-2.282-5.817-4.267l-.037.17a15.623 15.623 0 00-.196 4.522c1.078.227 1.898 1.332 1.898 2.65 0 .78-.587 1.914-1.053 2.41.49 1.275.833 1.87 1.433 2.778z" fill="#373535"/><path d="M40.419 54.22c-.956-1.092-1.605-3.275-2.23-4.65-.11.015-.232.029-.355.029-1.286 0-2.645-1.247-2.339-2.707.172-.808.65-1.333 1.433-1.772-.171-1.658-.22-4.053.11-5.783.098-.496.294-.723.429-1.19-1.42-2.41-2.34-5.57-2.34-8.717 0-.113 0-.227.013-.34-2.4 1.403-4.213 3.6-4.213 7.058 0 7.654 3.809 15.18 9.48 18.114 0 0 .012-.028.012-.043zm13.945-10.59c-.735 2.409-2.72 4.138-5.046 4.138-1.25 0-2.4-.496-3.307-1.332-1.874 1.686-3.577 4.663-4.446 7.242.392.482.661.88 1.09 1.319 1.31.396 3.123 0 4.544 0 5.72 0 10.79-2.949 13.693-8.108-1.935-1.545-4.214-3.019-6.528-3.26z" fill="#373535"/><path d="M37.73 37.346a14.95 14.95 0 011.64-3.118 2.33 2.33 0 01-.11-.723c0-1.134.796-2.055 1.776-2.055.233 0 .453.056.65.141 2.939-2.593 6.809-3.727 10.704-2.72.355.098.698.198 1.04.325-3.845-.624-7.813.751-10.765 3.5.086.242.135.511.135.795 0 1.133-.796 2.055-1.776 2.055-.22 0-.441-.043-.637-.142a14.52 14.52 0 00-1.604 3.416c1.396 1.743 3.123 3.132 5.033 3.954 0-.099-.012-.212-.012-.312 0-3.43 2.4-6.193 5.352-6.193 2.658 0 4.85 2.225 5.28 5.159 1.322-.978 2.498-2.225 3.477-3.671a1.993 1.993 0 01-.367-1.176c0-1.035.723-1.871 1.617-1.871.122 0 .245.014.367.056a17.99 17.99 0 001.102-3.713c-4.63-3.969-13.582-3.43-13.582-3.43s-7.128-.425-11.942 2.296a17.92 17.92 0 002.621 7.427z" fill="#1287B1"/><path d="M60.24 35.2c.331.34.54.837.54 1.375 0 1.035-.723 1.871-1.617 1.871-.086 0-.184-.014-.27-.028-1.004 1.814-2.327 3.359-3.895 4.535 2.303.411 4.483 1.545 6.271 3.26 1.31-2.707 2.058-5.84 2.058-9.156 0-2.537-.968-4.394-2.425-5.754a16.181 16.181 0 01-.662 3.897zM40.81 52.688c.796-2.552 2.18-4.833 4.042-6.577a6.77 6.77 0 01-.661-1.403c-2.266-.794-4.263-2.282-5.818-4.266l-.037.17a15.62 15.62 0 00-.196 4.521c1.078.227 1.899 1.333 1.899 2.65 0 .78-.294 1.489-.747 1.985a15.56 15.56 0 001.518 2.92z" fill="#1287B1"/><path d="M40.414 54.193a14.788 14.788 0 01-2.364-3.728 2.8 2.8 0 01-.355.028c-1.286 0-2.339-1.204-2.339-2.707 0-1.063.539-1.998 1.323-2.424a17.206 17.206 0 01.22-5.116c.098-.496.208-.978.343-1.446-1.42-2.41-2.253-5.33-2.253-8.461 0-.114 0-.227.012-.34-2.4 1.388-4.213 3.6-4.213 7.058 0 7.654 3.956 14.244 9.626 17.192-.012-.014-.012-.042 0-.056zm13.8-9.67c-.735 2.41-2.719 4.138-5.046 4.138-1.25 0-2.4-.496-3.307-1.332-1.874 1.687-3.294 3.997-4.164 6.577.392.481.808.935 1.237 1.374 1.31.397 2.694.61 4.115.61 5.72 0 10.754-3.416 13.656-8.575-1.935-1.545-4.164-2.551-6.491-2.792z" fill="#1287B1"/><path d="M54.401 42.926l4.948-1.36-4.972-.298 4.042-3.572-4.593 1.9 3.123-5.003-4.311 3.316 1.506-5.854-2.951 4.82-.062-6.095-1.947 5.428-1.617-5.5.086 6.478-2.805-5.797 1.519 6.166-4.544-3.827 3.564 5.187-5.646-2.41 4.458 3.814-5.72.198 5.843 1.743-5.843 1.46 5.77.482-4.863 3.614 5.01-2.097-3.48 5.102 4.398-4.096-1.58 6.846L47.126 48l-.477 6.576 1.923-5.953 1.64 6.265.405-6.279 2.437 5.358-1.433-6.138 4.458 3.998-2.878-5.089 4.887 2.211-3.736-4.252 5.01.454-4.96-2.226z" fill="#fff"/><path opacity=".35" d="M1.713 53.892C17.06 36.12 29.32 30.634 40.453 28.14c1.47-.326 1.751-4.054 1.751-4.054s.208 2.736 1.237 3.104c1.029.355 2.364-4.294 2.364-4.294s-1.237 4.167 0 4.408c1.237.24 3.503-4.054 3.503-4.054s-.931 3.7-.306 3.94c.612.241 3.71-5.371 3.71-5.371s-1.849 3.699-.097 4.053c1.751.355 4.31-2.523 4.31-2.523s-2.008 2.637-1.114 3.005c3.81 1.545 6.896-4.181 6.896-4.181s-.71 2.509-2.572 5.258c4.017 1.191 7.005-5.81 7.005-5.81l-2.988 7.001c1.543.935 7.716-7.285 7.716-7.285s-3.197 6.435-5.046 7.753c1.029.95 4.74-2.863 4.74-2.863s-2.989 4.294-1.85 4.535c1.654 1.545 7.729-7.994 7.729-7.994s-2.364 5.599-5.867 10.021c2.927 1.7 10.202-9.184 10.202-9.184s-.208 3.458-5.462 8.943c3.92-.595 8.965-9.184 8.965-9.184s-1.85 6.434-6.283 10.97c3.846-.468 9.994-11.452 9.994-11.452s-2.364 7.625-7.214 12.047c5.353 1.375 13.08-7.866 13.08-7.866s-3.037 6.562-7.005 9.241c4.434 1.97 10.509-6.137 10.509-6.137S92.285 41.023 82.597 40.54c-3.172-.156-12.787-11.155-33.387-10.247C22.008 31.47 16.24 44.82 1.713 53.892z" fill="#373535"/><path d="M2.341 52.542c15.347-17.759 27.607-23.244 38.74-25.753 1.47-.326 1.751-4.054 1.751-4.054s.208 2.75 1.237 3.105c1.029.354 2.364-4.295 2.364-4.295s-1.237 4.167 0 4.408c1.237.24 3.503-4.054 3.503-4.054s-.931 3.7-.306 3.94c.612.241 3.71-5.371 3.71-5.371s-1.849 3.699-.097 4.053c1.751.355 4.31-2.523 4.31-2.523s-2.008 2.637-1.114 3.005c3.81 1.545 6.896-4.18 6.896-4.18s-.71 2.508-2.572 5.257c4.017 1.191 7.005-5.81 7.005-5.81l-2.988 7c1.543.95 7.728-7.271 7.728-7.271s-3.196 6.435-5.046 7.753c1.029.95 4.74-2.863 4.74-2.863s-2.988 4.294-1.85 4.535c1.654 1.545 7.729-7.994 7.729-7.994s-2.376 5.6-5.867 10.021c2.927 1.701 10.203-9.184 10.203-9.184s-.209 3.458-5.463 8.943c3.92-.595 8.965-9.184 8.965-9.184s-1.849 6.435-6.283 10.97c3.846-.468 9.995-11.452 9.995-11.452s-2.364 7.625-7.214 12.047c5.352 1.375 13.08-7.866 13.08-7.866s-3.037 6.562-7.006 9.241C92.925 36.937 99 28.83 99 28.83s-6.075 10.857-15.763 10.375c-3.172-.156-12.786-11.154-33.387-10.247C22.636 30.12 16.867 43.47 2.341 52.542z" fill="#373535"/><path opacity=".35" d="M1.305 55.834c8.108 4.706 15.53-.709 24.887 2.339 7.104 2.324 15.763 5.173 27.508 3.203 11.746-1.97 21.789-7.866 26.578-18.426 1.494-4.705 7.569 1.078 7.569 1.078s-4.434-2.14-4.324-1.134c.098 1.006 6.65 4.535 6.65 4.535s-5.927-2.14-5.56-.538c.368 1.601 7.422 8.05 7.422 8.05s-7.985-7.03-8.659-6.08c-.673.95 3.405 4.833 3.405 4.833s-6.748-4.833-9.124-3.402c-1.703 1.02 7.005 7.64 7.005 7.64s-5.67-5.003-7.005-3.7c-1.335 1.32 6.393 12.048 6.393 12.048s-8.757-10.97-9.64-10.432c-.88.539 2.426 5.783 2.426 5.783s-4.323-5.485-5.511-4.535c-1.189.95 6.185 15.208 6.185 15.208s-7.986-14.599-11.28-12.161c5.18 13.139 3.245 15.024 3.245 15.024s-.661-13.408-7.103-13.054c-3.246.184 1.543 10.02 1.543 10.02s-4.41-8.985-7.349-8.801C61.98 75.18 60.044 80 60.044 80s.895-10.12-6.442-15.761C56.382 67.102 51.851 80 51.851 80s3.98-19.007-2.94-15.378c-1.09.567-.073 9.482-.073 9.482s-1.396-10.191-3.479-9.652c-1.212.311-7.728 14.13-7.728 14.13s5.328-14.938 3.711-14.3c-1.188.453-3.405 6.619-3.405 6.619s1.078-6.08 0-6.435c-1.077-.354-7.103 6.435-7.103 6.435s4.482-6.08 3.71-7.328c-1.175-1.9-2.547-1.984-4.176-1.247-2.376 1.063-5.56 6.08-5.56 6.08s3.184-5.074 2.62-6.973c-.893-3.048-10.042 5.896-10.042 5.896s5.413-5.896 4.176-7.158c-1.237-1.247-7.948-.864-10.043-.864-6.197-.085-8.328-1.758-10.214-3.473z" fill="#373535"/><path d="M1 54.76c8.108 4.705 15.53-.71 24.887 2.338 7.104 2.325 15.763 5.174 27.508 3.203 11.746-1.97 21.789-7.866 26.578-18.425 1.494-4.706 7.569 1.077 7.569 1.077s-4.434-2.14-4.323-1.134c.098 1.006 6.65 4.536 6.65 4.536s-5.928-2.14-5.56-.539c.355 1.616 7.422 8.05 7.422 8.05s-7.986-7.03-8.66-6.08c-.673.95 3.405 4.833 3.405 4.833s-6.748-4.833-9.124-3.401c-1.703 1.02 7.005 7.64 7.005 7.64s-5.67-5.004-7.005-3.7c-1.335 1.318 6.393 12.047 6.393 12.047s-8.757-10.97-9.639-10.431c-.87.538 2.425 5.782 2.425 5.782s-4.323-5.485-5.511-4.535c-1.188.95 6.185 15.208 6.185 15.208s-7.986-14.599-11.28-12.16c5.18 13.138 3.246 15.023 3.246 15.023s-.662-13.408-7.104-13.054c-3.246.185 1.543 10.021 1.543 10.021s-4.41-8.986-7.349-8.802c5.414 11.85 3.479 16.668 3.479 16.668s.894-10.12-6.443-15.76c2.78 2.863-1.75 15.76-1.75 15.76s3.98-19.006-2.94-15.378c-1.103.539-.086 9.454-.086 9.454s-1.396-10.19-3.478-9.652c-1.213.312-7.729 14.13-7.729 14.13s5.328-14.938 3.711-14.3c-1.188.453-3.404 6.619-3.404 6.619s1.077-6.08 0-6.435c-1.078-.355-7.104 6.435-7.104 6.435s4.482-6.08 3.71-7.328c-1.175-1.9-2.547-1.984-4.176-1.247-2.376 1.063-5.56 6.08-5.56 6.08s3.184-5.074 2.621-6.973c-.894-3.048-10.043 5.896-10.043 5.896s5.413-5.896 4.176-7.158c-1.237-1.247-7.948-.864-10.043-.878C5.017 58.147 2.874 56.474 1 54.76z" fill="#373535"/></svg>