<svg width="100" height="100" fill="none" xmlns="http://www.w3.org/2000/svg"><path d="M90.4 33.2c-1.2-.8-2.5-1.6-3.8-2.3-1-.5-2.1-1.1-3.2-1.6-2.9-1.3-6-2.4-9.4-3.4.4 1.4.8 2.9 1.1 4.5.3 1.5.6 3 .8 4.6 1.8.6 3.6 1.3 5.3 2 .8.3 1.5.7 2.3 1.1l1.2.6c1.3.7 2.5 1.4 3.6 2.2 4 2.8 6.5 5.9 7.3 9.1-.8 3.1-3.3 6.3-7.3 9.1.4 1.1.8 2.2 1.1 3.3.4 1.5.8 3 1.1 4.4 2.1-1.4 3.9-3 5.4-4.7 2.6-3.1 4.1-6.5 4.1-10v-4.2c0-3.6-1.5-6.9-4.2-10-1.5-1.7-3.3-3.2-5.4-4.7zM35 75.9c1.4.2 2.7.4 4 .6-1.7-1.4-3.4-2.8-5.1-4.4.3 1.3.7 2.6 1.1 3.8zm47.1-10.5c-.3-.8-.5-1.6-.9-2.4-1.7.7-3.4 1.4-5.3 2-1.2.4-2.5.8-3.8 1.1-.2 0-.4.1-.5.1-1.4.4-2.9.7-4.4 1-.8.2-1.6.3-2.4.4-2.3.4-4.7.7-7.1.9a96.53 96.53 0 01-15.2 0c1.7 1.5 3.6 3 5.5 4.4.7.5 1.3.9 2 1.4 1.3.9 2.5 1.7 3.8 2.4.2.1.3.2.5.3 2.3-.1 4.5-.3 6.7-.5 1.3-.1 2.7-.3 4-.5 1.6-.2 3.1-.5 4.6-.8 1.5-.3 3-.7 4.5-1.1 3.4-.9 6.6-2.1 9.4-3.4-.2-1.3-.6-2.7-1-4.1-.1-.4-.3-.8-.4-1.2zM49.8 25.8c-1.3-.9-2.5-1.7-3.8-2.4-.2-.1-.3-.2-.5-.3-2.3.1-4.5.3-6.7.5-1.3.1-2.7.3-4 .5-1.6.2-3.1.5-4.6.8-1.5.3-3 .7-4.5 1.1-3.4.9-6.6 2.1-9.4 3.4.5 1.3.8 2.6 1.2 4.1.1.4.3.8.4 1.2.3.8.5 1.6.9 2.4 1.7-.7 3.4-1.4 5.3-2 1.2-.4 2.5-.8 3.8-1.1.2 0 .4-.1.5-.1 1.4-.4 2.9-.7 4.4-1 .8-.2 1.6-.3 2.4-.4 2.3-.4 4.7-.7 7.1-.9a96.532 96.532 0 0115.2 0c-1.9-1.6-3.7-3.1-5.7-4.4-.7-.5-1.3-.9-2-1.4zM61 23.5c1.7 1.4 3.4 2.8 5.1 4.4-.3-1.3-.7-2.6-1.1-3.8-1.4-.2-2.7-.4-4-.6zM24.1 65c-1.8-.6-3.6-1.3-5.3-2-.8-.3-1.5-.7-2.3-1.1l-1.2-.6c-1.3-.7-2.5-1.4-3.6-2.2-4-2.8-6.5-6-7.3-9.1.8-3.1 3.3-6.3 7.3-9.1-.4-1.1-.8-2.2-1.1-3.3-.5-1.5-.8-3-1.1-4.4-2.1 1.4-3.9 3-5.4 4.7C1.5 41 0 44.4 0 47.9v4.2c0 3.6 1.5 6.9 4.2 10 1.5 1.7 3.3 3.2 5.4 4.7 1.2.8 2.5 1.6 3.8 2.3 1 .5 2.1 1.1 3.2 1.6 2.9 1.3 6 2.4 9.4 3.4-.4-1.4-.8-2.9-1.1-4.5-.3-1.5-.6-3-.8-4.6z" fill="#2C567D"/><path d="M57.8 78.9c1-.8 2.1-1.6 3.2-2.4-2.2.2-4.4.4-6.7.5 1.2.7 2.3 1.3 3.5 1.9zM73.9 9.1c-2.2-.1-4.6 0-7.1.5-1.4.3-2.9.6-4.4 1.1-1.1.3-2.2.7-3.3 1.1-2.9 1.1-6 2.6-9.1 4.3 1.3.7 2.6 1.5 3.9 2.4 1.3.8 2.6 1.7 3.9 2.7 1.7-.9 3.4-1.6 5.1-2.3l2.4-.9c.4-.1.8-.3 1.2-.4 1.4-.4 2.8-.8 4.1-1 4.8-.9 8.8-.4 11.6 1.2l4.6-1.7-2.9-2.9c-2.5-2.5-6-3.9-10-4.1z" fill="#F2B462"/><path d="M86.8 16.2c-.5-.5-1-.9-1.6-1.4l-3 3c1.7 2.8 2.1 6.8 1.2 11.6 1.1.5 2.2 1 3.2 1.6 1.4.7 2.7 1.5 3.8 2.3.5-2.5.6-4.9.5-7.1-.3-4.1-1.6-7.5-4.1-10zm-3.3 21.9c-.7-.4-1.5-.7-2.3-1.1-.7 1.7-1.4 3.4-2.3 5.1-.6 1.2-1.2 2.3-1.9 3.5-.1.2-.2.3-.3.5-.8 1.3-1.6 2.5-2.4 3.8-.5.7-.9 1.3-1.4 2-1.4 1.9-2.9 3.8-4.4 5.7-1.6 1.9-3.4 3.8-5.2 5.6-1.8 1.8-3.7 3.6-5.6 5.2 2.4-.1 4.7-.4 7.1-.8.8-.1 1.6-.3 2.4-.4 1.5-.3 3-.6 4.4-1 .2 0 .4-.1.5-.1 1.5-1.7 3-3.4 4.4-5.1.8-1.1 1.7-2.1 2.4-3.2l2.7-3.9c.9-1.3 1.7-2.6 2.4-3.9 1.8-3.1 3.2-6.1 4.3-9.1-1.1-.8-2.3-1.5-3.6-2.2l-1.2-.6zM39 23.5c2.2-.2 4.4-.4 6.7-.5-1.2-.7-2.3-1.3-3.5-1.9-1.1.8-2.1 1.6-3.2 2.4zm3.2 55.2c-1.7.9-3.4 1.6-5.1 2.3l-2.4.9c-.4.1-.8.3-1.2.4-1.4.4-2.8.8-4.1 1-4.8 1-8.8.6-11.6-1.1-1.7-2.8-2.1-6.8-1.2-11.6-1.1-.5-2.2-1-3.2-1.6-1.4-.7-2.7-1.5-3.8-2.3-.5 2.5-.6 4.9-.5 7.1.3 4.1 1.6 7.5 4.1 10l2.9 2.9c2.5 2.5 6 3.9 10 4.1 2.2.1 4.6 0 7.1-.5 1.4-.3 2.9-.6 4.4-1.1 1.1-.3 2.2-.7 3.3-1.1 2.9-1.1 6-2.6 9.1-4.3-1.3-.7-2.6-1.5-3.9-2.4-1.3-.8-2.6-1.7-3.9-2.7zm-9.3-45.8c-1.5.3-3 .6-4.4 1-.2 0-.4.1-.5.1-1.5 1.7-3 3.4-4.4 5.1-.8 1.1-1.7 2.1-2.4 3.2l-2.7 3.9c-.9 1.3-1.7 2.6-2.4 3.9-1.8 3.1-3.2 6.1-4.3 9.1 1 .6 2.2 1.3 3.6 2.1l1.2.6c.7.4 1.5.7 2.3 1.1.7-1.7 1.4-3.4 2.3-5.1.6-1.2 1.2-2.3 1.9-3.5.1-.2.2-.3.3-.5.8-1.3 1.6-2.5 2.4-3.8.5-.7.9-1.3 1.4-2 1.4-1.9 2.9-3.8 4.4-5.7 1.6-1.9 3.4-3.8 5.2-5.6 1.8-1.8 3.7-3.6 5.6-5.2-2.4.2-4.8.5-7.1.9-.8.1-1.6.3-2.4.4z" fill="#F2B462"/><path d="M21.1 57.8c.8 1 1.6 2.1 2.4 3.2-.2-2.2-.4-4.4-.5-6.7-.7 1.2-1.3 2.3-1.9 3.5zm5.1-48.7c-4.1.3-7.5 1.6-10 4.1-.5.5-.9 1-1.4 1.6.4-.6.9-1.1 1.4-1.6l-2.9 2.9c-2.5 2.5-3.9 6-4.1 10-.1 2.2 0 4.6.5 7.1.3 1.4.6 2.9 1.1 4.4.3 1.1.7 2.2 1.1 3.3 1.1 2.9 2.6 6 4.3 9.1.7-1.3 1.5-2.6 2.4-3.9.8-1.3 1.7-2.6 2.7-3.9-.9-1.7-1.6-3.4-2.3-5.1l-.9-2.4c-.1-.4-.3-.8-.4-1.2-.4-1.4-.8-2.8-1-4.1-1-4.8-.6-8.8 1.1-11.6 2.8-1.7 6.8-2.1 11.6-1.2.5-1.1 1-2.2 1.6-3.2.7-1.4 1.5-2.7 2.3-3.8-2.5-.5-4.9-.6-7.1-.5zM77 45.7c.7-1.2 1.3-2.3 1.9-3.5-.8-1.1-1.6-2.1-2.4-3.2.2 2.2.4 4.4.5 6.7zm-9.8-12.9c-.3-1.5-.6-3-1-4.4 0-.2-.1-.4-.1-.5-1.7-1.5-3.4-3-5.1-4.4-1.1-.8-2.1-1.7-3.2-2.4l-3.9-2.7c-1.3-.9-2.6-1.7-3.9-2.4-3.1-1.8-6.1-3.2-9.1-4.3-.8 1.1-1.5 2.3-2.2 3.6l-.6 1.2c-.4.7-.7 1.5-1.1 2.3 1.7.7 3.4 1.4 5.1 2.3 1.2.6 2.3 1.2 3.5 1.9.2.1.3.2.5.3 1.3.8 2.5 1.6 3.8 2.4.7.4 1.3.9 2 1.4 1.9 1.4 3.8 2.9 5.7 4.4 1.9 1.6 3.8 3.4 5.6 5.2 1.8 1.8 3.6 3.7 5.2 5.6-.2-2.4-.4-4.8-.8-7.1-.1-.8-.3-1.6-.4-2.4zM54.4 77c-.2-.1-.3-.2-.5-.3-1.3-.8-2.5-1.6-3.8-2.4-.7-.5-1.3-.9-2-1.4-1.9-1.4-3.8-2.9-5.7-4.4-1.9-1.6-3.8-3.4-5.6-5.2-1.8-1.8-3.6-3.7-5.2-5.6.1 2.4.4 4.8.8 7.1.1.8.3 1.6.4 2.4.3 1.5.6 3 1 4.4 0 .2.1.4.1.5 1.7 1.5 3.4 3 5.1 4.4 1.1.8 2.1 1.7 3.2 2.4l3.9 2.7c1.3.9 2.6 1.7 3.9 2.4 3.1 1.8 6.1 3.2 9.1 4.3.8-1.1 1.5-2.3 2.2-3.6l.6-1.2c.4-.7.7-1.5 1.1-2.3-1.7-.7-3.4-1.4-5.1-2.3-1.2-.6-2.3-1.2-3.5-1.9zm34.9-14.6c-.3-1.1-.7-2.2-1.1-3.3-1.1-2.9-2.6-6-4.3-9.1-.7 1.3-1.5 2.6-2.4 3.9-.8 1.3-1.7 2.6-2.7 3.9.9 1.7 1.6 3.4 2.3 5.1l.9 2.4c.1.4.3.8.4 1.2.4 1.4.8 2.8 1 4.1.9 4.8.4 8.8-1.2 11.6-2.8 1.7-6.8 2.1-11.6 1.2-.5 1.1-1 2.2-1.6 3.2-.7 1.4-1.5 2.7-2.3 3.8 2.5.5 4.9.6 7.1.5 4.1-.2 7.5-1.6 10.1-4.1l2.9-2.9c2.5-2.5 3.9-6 4.1-10 .1-2.2 0-4.6-.5-7.1-.3-1.4-.6-2.9-1.1-4.4z" fill="#59ADCC"/><path d="M35 75.9c-.4-1.2-.8-2.5-1.1-3.8 0-.2-.1-.4-.1-.5-.4-1.4-.7-2.9-1-4.4-.2-.8-.3-1.6-.4-2.4-.4-2.3-.7-4.7-.9-7.1a96.53 96.53 0 010-15.2c-1.5 1.7-3 3.6-4.4 5.5-.5.7-.9 1.3-1.4 2-.9 1.3-1.7 2.5-2.4 3.8-.1.2-.2.3-.3.5.1 2.3.3 4.5.5 6.7.2 1.3.3 2.7.5 4 .2 1.6.5 3.1.8 4.6.3 1.5.7 3 1.1 4.5.9 3.4 2.1 6.6 3.4 9.4 1.3-.2 2.7-.6 4.1-1 .4-.1.8-.3 1.2-.4.8-.3 1.6-.5 2.4-.9-.7-1.7-1.4-3.4-2-5.3zm37.1-9.8c1.3-.3 2.6-.7 3.8-1.1.2-1.4.4-2.7.6-4-1.4 1.7-2.8 3.4-4.4 5.1zM23.5 39c1.4-1.7 2.8-3.4 4.4-5.1-1.3.3-2.6.7-3.8 1.1-.3 1.4-.4 2.7-.6 4zM76 35c-.2-1.6-.5-3.1-.8-4.6-.3-1.5-.7-3-1.1-4.5-.9-3.4-2.1-6.6-3.4-9.4-1.3.2-2.7.6-4.1 1-.4.1-.8.3-1.2.4-.8.3-1.6.5-2.4.9.7 1.7 1.4 3.4 2 5.3.4 1.2.8 2.5 1.1 3.8 0 .2.1.4.1.5.4 1.4.7 2.9 1 4.4.2.8.3 1.6.4 2.4.4 2.3.7 4.7.9 7.1a96.53 96.53 0 010 15.2c1.5-1.7 3-3.6 4.4-5.5.5-.7.9-1.3 1.4-2 .9-1.3 1.7-2.5 2.4-3.8.1-.2.2-.3.3-.5-.1-2.3-.3-4.5-.5-6.7-.1-1.3-.3-2.7-.5-4zM62 4.1C59 1.5 55.6 0 52.1 0h-4.2c-3.6 0-6.9 1.5-10 4.2-1.7 1.5-3.2 3.3-4.7 5.4-.8 1.2-1.6 2.5-2.3 3.8-.5 1-1.1 2.1-1.6 3.2-1.3 2.9-2.4 6-3.4 9.4 1.4-.4 2.9-.8 4.5-1.1 1.5-.3 3-.6 4.6-.8.6-1.8 1.3-3.6 2-5.3.3-.8.7-1.5 1.1-2.3l.6-1.2c.7-1.3 1.4-2.5 2.2-3.6 2.8-4 5.9-6.5 9.1-7.3 3.1.8 6.3 3.3 9.1 7.3 1.1-.4 2.2-.8 3.3-1.1l4.3-1.1c-1.4-2.1-3-3.9-4.7-5.4zm3 71.8c-.6 1.8-1.3 3.6-2 5.3-.3.8-.7 1.5-1.1 2.3l-.6 1.2c-.7 1.3-1.4 2.5-2.2 3.6-2.8 4-5.9 6.5-9.1 7.3-3.1-.8-6.3-3.3-9.1-7.3-1.1.4-2.2.8-3.3 1.1l-4.4 1.1c1.4 2.1 3 3.9 4.7 5.4 3.1 2.6 6.5 4.1 10 4.1h4.2c3.6 0 6.9-1.5 10-4.2 1.7-1.5 3.2-3.3 4.7-5.4.8-1.2 1.6-2.5 2.3-3.8.5-1 1.1-2.1 1.6-3.2 1.3-2.9 2.4-6 3.4-9.4l-4.5 1.1c-1.5.3-3 .6-4.6.8z" fill="#46AF77"/></svg>