<svg width="100" height="100" fill="none" xmlns="http://www.w3.org/2000/svg"><path d="M19.16 56.69l9.95 17.22-17.23 9.95-9.96-17.24 17.24-9.93zm41.4 23.12H40.37V100h20.19V79.81zm10.32-5.9l9.96-17.22 17.24 9.93-9.96 17.23-17.24-9.94zm17.23-57.05l-17.23 9.952 9.956 17.24L98.068 34.1 88.11 16.86z" fill="#F0524A"/><path d="M60.56 40.38H40.37v20.19h20.19V40.38z" fill="#241F21"/><path d="M60.56 0H40.37v20.19h20.19V0zM11.882 16.857L1.929 34.101l17.235 9.948 9.953-17.244-17.235-9.948z" fill="#F0524A"/></svg>