<svg width="100" height="100" fill="none" xmlns="http://www.w3.org/2000/svg"><path d="M10 28h66.714c7.335 0 13.865-3.288 18.286-8.57C85.857 7.674 71.389 0 55.213 0 35.319 0 18.239 11.46 10 28z" fill="#F0BF1A"/><path d="M95 80.34C90.59 75.277 84.174 72 76.857 72H10c8.22 16.582 25.26 28 45.106 28A50.241 50.241 0 0095 80.34z" fill="#3EBEB0"/><path d="M70.882 36H7.002A49.825 49.825 0 005 50c0 4.865.7 9.532 2.003 14h63.88C78.591 64 85 57.844 85 50s-6.308-14-14.118-14z" fill="#07A5DE"/><path d="M7.026 36A49.278 49.278 0 005 50c0 4.865.71 9.532 2.026 14h42.252C50.392 59.83 51 55.163 51 50s-.608-9.73-1.722-14H7.026z" fill="#231F20"/><path d="M29.854 7C21.43 11.906 14.412 19.266 10 28h37c-3.81-8.44-9.726-15.505-17.146-21z" fill="#D7A229"/><path d="M31.4 94c7.2-5.748 13-13.28 16.6-22H10c4.7 9.216 12.2 17.045 21.4 22z" fill="#019B8F"/></svg>