<svg width="100" height="100" fill="none" xmlns="http://www.w3.org/2000/svg"><mask id="a" maskUnits="userSpaceOnUse" x="14" y="0" width="72" height="99"><path fill-rule="evenodd" clip-rule="evenodd" d="M76.293 22.678c-.1-.8-.7-1.5-1.5-1.7-.8-.3-1.7 0-2.3.5l-11.4 11.6-9.1-17.2c-.4-.7-1.1-1.2-1.9-1.2-.8 0-1.6.5-1.9 1.2l-5 9.4-12.5-23.1c-1-1.9-3.8-1.4-4.2.7l-12 76.6 32.1 18c2 1.1 4.5 1.1 6.5 0l32.4-18-9.2-56.8z" fill="#fff"/></mask><g mask="url(#a)"><path d="M14.547 79.418l12-76.6c.3-2.1 3.2-2.6 4.2-.7l12.4 23.1 4.9-9.4c.4-.7 1.1-1.2 2-1.2.8 0 1.6.5 2 1.2l33.5 63.6h-71z" fill="#FFA000"/><path d="M56.047 49.637l-12.9-24.4-28.6 54.2 41.5-29.8z" fill="#F57C00"/><path d="M85.491 79.405l-9.2-56.7c-.1-.8-.7-1.5-1.5-1.7-.8-.3-1.7 0-2.3.5l-58 58 32.1 18c2 1.1 4.5 1.1 6.5 0l32.4-18.1z" fill="#FFCA28"/><path d="M76.347 22.718c-.1-.8-.7-1.5-1.5-1.7-.8-.3-1.7 0-2.3.5l-11.5 11.5-9.1-17.2c-.4-.7-1.1-1.2-1.9-1.2-.8 0-1.6.5-1.9 1.2l-4.9 9.4-12.6-23.1c-1-1.9-3.8-1.4-4.2.7l-12 76.6h-.1l.1.1.3.2 46.1-46.1 11.5-11.5c.6-.6 1.5-.8 2.3-.5.8.3 1.4.9 1.5 1.7l9.1 56.2.1-.1-9-56.7zm-61.7 56.6l11.9-75.9c.3-2.1 3.2-2.6 4.2-.7l12.4 23.1 4.9-9.4c.4-.7 1.1-1.2 2-1.2.8 0 1.6.5 2 1.2l8.9 16.8-46.3 46.1z" fill="#fff" fill-opacity=".2"/><path opacity=".2" d="M53.147 96.818c-2 1.1-4.5 1.1-6.5 0l-32-17.9-.1.5 32.1 18c2 1.1 4.5 1.1 6.5 0l32.4-18-.1-.5-32.3 17.9z" fill="#A52714"/></g></svg>