<svg width="18" height="18" fill="none" xmlns="http://www.w3.org/2000/svg"><path d="M3.081 15.385A3.584 3.584 0 006.2 17.182h5.515a3.585 3.585 0 003.095-1.755l2.712-4.618a3.45 3.45 0 00.014-3.48l-2.73-4.732a3.585 3.585 0 00-3.11-1.779H6.219a3.583 3.583 0 00-3.132 1.82L.44 7.371a3.45 3.45 0 00.014 3.397l2.627 4.617z" fill="#4584EF"/><path d="M12.733 6H5.267A.267.267 0 005 6.267v1.466c0 .148.12.267.267.267h7.466c.148 0 .267-.12.267-.267V6.267A.267.267 0 0012.733 6zm0 4H5.267a.267.267 0 00-.267.267v1.466c0 .148.12.267.267.267h7.466c.148 0 .267-.12.267-.267v-1.466a.267.267 0 00-.267-.267z" fill="#fff"/></svg>