<svg width="18" height="18" fill="none" xmlns="http://www.w3.org/2000/svg"><path d="M1 3.923A2.923 2.923 0 013.923 1h10.154A2.923 2.923 0 0117 3.923v10.154A2.923 2.923 0 0114.077 17H3.923A2.923 2.923 0 011 14.077V3.923z" fill="#5D9E7E"/><path fill-rule="evenodd" clip-rule="evenodd" d="M9.714 8.286h2.857V5.429H9.714v2.857zm-1.428-.092V5.429H5.429v2.765h2.857zM5.429 9.699l2.857.015v2.857H5.429V9.7zM4 5.505C4 4.674 4.56 4 5.25 4h7.5c.69 0 1.25.674 1.25 1.505v6.99c0 .831-.56 1.505-1.25 1.505h-7.5C4.56 14 4 13.326 4 12.495V5.506zm5.714 6.99V9.699h2.857v2.796H9.714z" fill="#fff"/></svg>