<svg width="100" height="100" fill="none" xmlns="http://www.w3.org/2000/svg"><path d="M50.804 3.264l-40.9 70.839 3.637 2.1 40.9-70.84-3.637-2.1z" fill="#E535AB"/><path d="M90.9 68.4H9.1v4.2h81.8v-4.2z" fill="#E535AB"/><path d="M12.829 67.2l-2.1 3.637 40.875 23.6 2.1-3.637-40.876-23.6zM48.317 5.654l-2.1 3.637 40.875 23.6 2.1-3.637-40.875-23.6z" fill="#E535AB"/><path d="M51.584 5.601l-40.875 23.6 2.1 3.638 40.875-23.6-2.1-3.638z" fill="#E535AB"/><path d="M49.146 3.233l-3.637 2.1 40.9 70.839 3.637-2.1-40.9-70.839zM16.5 26.4h-4.2v47.2h4.2V26.4z" fill="#E535AB"/><path d="M87.6 26.4h-4.2v47.2h4.2V26.4z" fill="#E535AB"/><path d="M84.611 68.882l-35.593 20.55 1.85 3.204 35.593-20.55-1.85-3.204z" fill="#E535AB"/><path d="M93.3 75c-2.5 4.3-7.9 5.7-12.2 3.3-4.3-2.4-5.7-7.9-3.3-12.2 2.5-4.3 7.9-5.7 12.2-3.3 4.3 2.5 5.8 7.9 3.3 12.2zM22.1 33.9c-2.5 4.3-7.9 5.7-12.2 3.3-4.3-2.4-5.7-7.9-3.2-12.2 2.5-4.3 7.9-5.7 12.2-3.3 4.2 2.5 5.7 7.9 3.2 12.2zM6.7 75c-2.5-4.3-1-9.7 3.3-12.2s9.7-1 12.2 3.3 1 9.7-3.3 12.2c-4.3 2.4-9.7 1-12.2-3.3zm71.2-41.1c-2.5-4.3-1-9.7 3.3-12.2s9.7-1 12.2 3.3 1 9.7-3.3 12.2c-4.3 2.4-9.8 1-12.2-3.3zM50 100c-4.9 0-8.9-4-8.9-8.9s4-8.9 8.9-8.9 8.9 4 8.9 8.9-4 8.9-8.9 8.9zm0-82.2c-4.9 0-8.9-4-8.9-8.9S45.1 0 50 0s8.9 4 8.9 8.9-4 8.9-8.9 8.9z" fill="#E535AB"/></svg>