<svg width="18" height="18" fill="none" xmlns="http://www.w3.org/2000/svg"><path d="M0 9a9 9 0 1118 0A9 9 0 010 9z" fill="#D96459"/><path d="M5.434 9.781c0-.205-.057-.36-.17-.463-.111-.106-.315-.215-.61-.328-.54-.192-.929-.415-1.166-.67a1.305 1.305 0 01-.355-.913c0-.424.16-.764.481-1.02C3.937 6.13 4.346 6 4.842 6c.33 0 .625.066.884.197.26.129.458.312.596.55.14.237.21.506.21.808H5.45c0-.235-.054-.413-.163-.535-.106-.125-.26-.187-.462-.187-.19 0-.338.053-.444.159a.563.563 0 00-.16.422c0 .138.06.263.178.376.119.11.328.226.63.346.524.177.905.395 1.142.653.24.258.359.587.359.985 0 .438-.15.78-.448 1.027-.298.246-.704.37-1.217.37-.347 0-.664-.067-.95-.201a1.584 1.584 0 01-.674-.574A1.591 1.591 0 013 9.515h1.091c0 .29.06.501.182.633.12.13.318.196.591.196.38 0 .57-.187.57-.563zm5.604-.805c0 .832-.24 1.436-.722 1.814l.744.622-.684.588-.992-.847-.285.017c-.609 0-1.086-.192-1.431-.577-.343-.387-.516-.921-.518-1.603v-.788c0-.692.171-1.23.514-1.618.343-.39.819-.584 1.428-.584.594 0 1.064.187 1.41.56.345.373.523.897.536 1.572v.844zm-1.091-.781c0-.459-.07-.798-.211-1.016-.14-.22-.355-.329-.644-.329-.288 0-.502.107-.64.322-.138.212-.21.535-.214.97v.834c0 .46.07.8.21 1.02.143.218.36.328.651.328.284 0 .495-.109.633-.325.14-.22.212-.552.215-.999v-.805zm3.144 2.065H15v.843h-2.996V6.07h1.087v4.19z" fill="#fff"/></svg>