<svg width="22" height="22" fill="none" xmlns="http://www.w3.org/2000/svg"><path d="M0 11C0 4.925 4.925 0 11 0s11 4.925 11 11-4.925 11-11 11S0 17.075 0 11z" fill="#336791"/><path d="M6.642 11.955c0-.251-.07-.44-.208-.566-.136-.13-.385-.264-.746-.402-.66-.233-1.135-.507-1.425-.82a1.595 1.595 0 01-.434-1.114c0-.519.196-.934.588-1.247.395-.315.895-.473 1.501-.473.404 0 .764.08 1.08.241.317.158.56.382.729.672.172.29.257.62.257.988H6.66c0-.287-.067-.505-.2-.654-.129-.153-.317-.229-.564-.229-.232 0-.413.065-.543.195-.13.126-.194.298-.194.515 0 .17.072.323.217.46.144.136.4.277.768.423.642.217 1.108.483 1.397.798.293.316.439.717.439 1.204 0 .535-.182.954-.547 1.255-.365.301-.86.452-1.488.452-.425 0-.812-.082-1.162-.245a1.938 1.938 0 01-.822-.701 1.95 1.95 0 01-.294-1.078H5c0 .355.074.613.222.774.148.16.389.24.723.24.465 0 .697-.23.697-.688zm6.848-.985c0 1.017-.293 1.756-.88 2.218l.908.76-.837.719-1.211-1.035-.348.02c-.745 0-1.328-.234-1.75-.705-.42-.473-.63-1.126-.633-1.96v-.963c0-.845.21-1.504.628-1.977.42-.476 1.001-.714 1.746-.714.726 0 1.3.228 1.722.685.422.456.64 1.097.656 1.922v1.03zm-1.333-.954c0-.56-.086-.975-.258-1.242-.172-.268-.434-.401-.786-.401-.353 0-.614.13-.783.392-.168.26-.256.655-.262 1.187v1.018c0 .564.086.979.258 1.247.175.267.44.4.796.4.346 0 .604-.132.773-.396.171-.268.259-.675.262-1.221v-.984zM16 12.54h2.333v1.03h-3.662V7.42h1.33v5.12z" fill="#fff"/></svg>