<svg width="100" height="100" fill="none" xmlns="http://www.w3.org/2000/svg"><path d="M74 72.8c.6-5.3.4-6.1 4.4-5.2l1 .1c3 .1 7-.5 9.3-1.6 5-2.3 8-6.2 3-5.2-11.3 2.3-12.1-1.5-12.1-1.5 11.9-17.7 16.9-40.2 12.6-45.7C80.6-1.2 60.3 5.8 59.9 6h-.1c-2.2-.5-4.7-.7-7.5-.8-5.1-.1-9 1.3-11.9 3.6 0 0-36.2-14.9-34.6 18.8.4 7.2 10.3 54.3 22.1 40 4.3-5.2 8.5-9.6 8.5-9.6 2.1 1.4 4.6 2.1 7.2 1.8l.2-.2c-.1.6 0 1.3.1 2-3 3.4-2.2 4-8.2 5.3-6.2 1.3-2.5 3.5-.2 4.1 2.9.7 9.5 1.7 14-4.5l-.2.7c1.2 1 1.1 6.9 1.3 11.1.2 4.2.5 8.2 1.3 10.5.9 2.3 1.9 8.3 9.9 6.6C68.4 94.1 73.6 92 74 72.8z" fill="#000"/><path d="M91.8 60.9c-11.3 2.3-12.1-1.5-12.1-1.5 11.9-17.7 16.9-40.2 12.6-45.7C80.6-1.2 60.3 5.8 59.9 6h-.1c-2.2-.5-4.7-.7-7.5-.8-5.1-.1-9 1.3-11.9 3.6 0 0-36.2-14.9-34.6 18.8.4 7.2 10.3 54.3 22.1 40 4.3-5.2 8.5-9.6 8.5-9.6 2.1 1.4 4.6 2.1 7.2 1.8l.2-.2c-.1.6 0 1.3.1 2-3 3.4-2.2 4-8.2 5.3-6.2 1.3-2.5 3.5-.2 4.1 2.9.7 9.5 1.7 14-4.5l-.2.7c1.2 1 2 6.2 1.9 11-.1 4.8-.2 8.1.7 10.6.9 2.6 1.9 8.3 9.9 6.6C68.5 94 72 90.2 72.4 84c.3-4.4 1.1-3.8 1.2-7.7l.6-1.9c.7-6 .1-7.9 4.2-7l1 .1c3 .1 7-.5 9.3-1.6 5.1-2.1 8.1-6 3.1-5z" fill="#336791"/><path d="M59.5 97.4c-6.7 0-8.9-5.3-9.7-7.5-1.3-3.2-1.6-15.2-1.3-25.6 0-.8.7-1.4 1.4-1.4.8 0 1.4.7 1.4 1.4-.3 11.7.2 22.2 1.1 24.5 1.4 3.6 3.6 6.8 9.8 5.4 6-1.3 8.1-3.4 9.1-9.2.8-4.4 2.3-17 2.5-19.5.1-.8.7-1.3 1.5-1.3.8.1 1.3.7 1.3 1.5-.2 2.6-1.7 15.1-2.5 19.7-1.2 6.9-4.2 10-11.3 11.5-1.2.4-2.3.5-3.3.5zM23.3 71.6c-.7 0-1.2-.1-1.8-.3-4.4-1.5-8.5-8.5-12.3-21.1-2.9-9.5-4.7-19.4-4.9-22.7-.5-9.6 2-16.4 7.4-20.2 4.5-3.2 10.8-4.2 18.7-2.9 5.8.9 10.2 2.7 10.4 2.8.7.3 1.1 1.1.8 1.8-.3.7-1.1 1.1-1.8.8-.2 0-17.2-6.8-26.5-.2-4.5 3.2-6.6 9.2-6.2 17.8.1 2.7 1.9 12.4 4.8 22 3.4 11.1 7.2 18.1 10.6 19.2.5.2 2.1.7 4.3-2 4.3-5.2 8.3-9.3 8.3-9.4.5-.6 1.4-.6 2 0 .6.5.6 1.4 0 2 0 0-3.9 4.1-8.2 9.2-2 2.5-4 3.2-5.6 3.2zm56.4-10.9c-.3 0-.5-.1-.8-.2-.6-.4-.8-1.3-.4-1.9 12-17.9 16.3-39.4 12.7-44-4.5-5.8-10.9-8.8-19-9-6-.1-10.8 1.4-11.6 1.7-.1 0-.1.1-.2.1-.8.3-1.5-.2-1.7-.7-.3-.6-.1-1.4.6-1.8.5-.3 6-2.1 12.6-2 9 .1 16.5 3.6 21.6 10.1 1.3 1.6 1.9 4.3 1.8 7.8-.1 3.3-.7 7.3-1.8 11.6-2.4 9.4-7 19.6-12.6 27.8-.4.3-.8.5-1.2.5z" fill="#fff"/><path d="M80.3 68.9c-2.1 0-3.9-.3-5.1-1-1.2-.7-1.4-1.7-1.4-2.2-.3-5.4 2.6-6.4 4.2-6.9-.2-.3-.5-.6-.7-1-.9-1.1-2.1-2.7-3.1-5-.1-.4-.6-1.2-1.1-2.1-2.9-5.2-9-16.1-5.1-21.7 1.8-2.6 5.4-3.6 10.6-3.1-.7-2.1-2.4-5.9-5.6-9.7-3.9-4.2-10.5-9.5-20.8-9.7-5.2-.1-9.5 1.5-12.8 4.8-7.2 7.3-7 20.6-7 20.7 0 .8-.6 1.4-1.4 1.4-.8 0-1.4-.6-1.4-1.4 0-.6-.3-14.6 7.8-22.7 3.8-3.8 8.8-5.7 14.8-5.6 11.2.2 18.5 5.9 22.6 10.7 4.5 5.2 6.6 10.9 6.8 12.8.1 1.5-1 1.8-1.2 1.9h-.5c-6.4-1-8.8.3-9.8 1.7-2.9 4.2 2.8 14.4 5.2 18.7.6 1.1 1.1 1.9 1.3 2.4.8 1.9 1.8 3.2 2.7 4.3.7.9 1.4 1.7 1.6 2.7.1.2 1.7 2.3 10.4.5 2.3-.5 3.7-.1 4.1 1.2.8 2.5-3.8 5.4-6.3 6.6-2.1 1.1-5.7 1.7-8.8 1.7zm-3.7-3.4c.3.3 1.8.7 4.6.6 2.6-.1 5.3-.7 6.9-1.4 1.9-.9 3.2-1.8 4-2.6H92c-5.7 1.2-9.8 1-12.1-.5-.1-.1-.3-.2-.4-.3-.2.1-.4.1-.6.2-1.3.4-2.5.7-2.3 4zm-37.1 7.4c-1.4 0-2.9-.2-4.5-.6-.4-.1-4.3-1.2-4.3-3.6 0-2.3 3.3-3 4.5-3.2 4.3-.9 4.6-1.2 5.9-2.9.4-.5.9-1.1 1.6-1.9 2.2-2.5 4.4-1.6 5.3-1.3 1.4.6 2.6 2 3.1 3.7.4 1.5.2 3-.6 4.2-2.7 3.7-6.5 5.6-11 5.6zm-5.7-4.1c.4.3 1.1.6 1.9.8 3.7.9 8.9 1 12.5-4 .4-.6.3-1.4.2-1.8-.2-.8-.8-1.6-1.5-1.9-.8-.3-1.2-.5-2.1.5-.6.7-1.1 1.3-1.5 1.7-1.7 2.2-2.5 2.9-7.6 3.9-.9.4-1.5.7-1.9.8z" fill="#fff"/><path d="M43.6 62.9c-.7 0-1.3-.5-1.4-1.2 0-.2 0-.4-.1-.6-3.3-.1-6.5-1.5-8.9-4-3.1-3.2-4.5-7.7-3.8-12.2.7-4.9.4-9.2.3-11.5 0-.6-.1-1.1-.1-1.4 0-.4 0-1.6 3.7-3.4 1.3-.7 3.9-1.8 6.7-2.1 4.7-.5 7.9 1.6 8.8 6 2.5 11.6.2 16.7-1.5 20.4-.3.7-.6 1.3-.8 2l-.2.6c-.9 2.4-1.6 4.4-1.4 5.9.1.8-.4 1.5-1.2 1.6 0-.1 0-.1-.1-.1zM32.5 32.4v.9c.1 2.4.4 6.9-.3 12.1-.5 3.7.6 7.3 3.1 9.9 1.9 2 4.5 3.2 7.1 3.2.3-1.2.8-2.6 1.3-4l.2-.6c.3-.7.6-1.4.9-2.2 1.6-3.6 3.6-8 1.3-18.7-.4-2.1-1.5-3.3-3.3-3.7-3.7-.8-9.2 2.1-10.3 3.1z" fill="#fff"/><path d="M40.2 31.8c-.1.5.8 1.7 2 1.8 1.2.2 2.2-.8 2.2-1.2.1-.5-.8-1-2-1.1-1.1-.2-2.2.1-2.2.5z" fill="#fff"/><path d="M42.5 34.1h-.3c-.7-.1-1.5-.6-2-1.2-.2-.2-.5-.7-.4-1.1 0-.2.1-.4.4-.6.5-.4 1.4-.5 2.4-.3 1.2.2 2.5.8 2.4 1.7-.2.6-1.3 1.5-2.5 1.5zm-1.8-2.2c.1.3.7 1.2 1.6 1.3.9.1 1.6-.6 1.7-.8-.1-.1-.6-.5-1.6-.6-1-.2-1.6 0-1.7.1zm35.3-1c.1.5-.8 1.7-2 1.8-1.2.2-2.2-.8-2.2-1.2-.1-.5.8-1 2-1.1 1.1-.2 2.1 0 2.2.5z" fill="#fff"/><path d="M73.7 33c-1.2 0-2.1-.9-2.2-1.5-.1-.7 1-1.2 2.2-1.4 1.2-.2 2.4 0 2.5.7 0 .3-.2.8-.6 1.2-.3.3-.8.8-1.6.9-.1.1-.2.1-.3.1zm.8-2.5c-.2 0-.4 0-.7.1-1.2.2-1.8.7-1.8.9 0 .3.9 1.2 2 1 .6-.1 1.1-.5 1.3-.7.4-.4.5-.7.5-.8-.1-.2-.5-.5-1.3-.5zm3.2 26.8c-.3 0-.5-.1-.8-.2-.6-.4-.8-1.3-.4-1.9 2.7-4.1 2.2-8.3 1.7-12.3-.2-1.7-.4-3.5-.4-5.3.1-1.8.3-3.2.5-4.6.3-1.7.5-3.2.4-5.1 0-.8.6-1.4 1.3-1.5.8 0 1.4.6 1.5 1.3.1 2.2-.2 3.9-.4 5.7-.2 1.3-.4 2.7-.5 4.3 0 1.5.1 3.1.3 4.8.5 4.3 1.1 9.2-2.2 14.2-.1.3-.6.6-1 .6z" fill="#fff"/></svg>