<svg width="100" height="100" fill="none" xmlns="http://www.w3.org/2000/svg"><g clip-path="url(#clip0)"><path d="M96.1 73.1c-5.3 2.8-33 14.1-38.9 17.2-5.9 3.1-9.2 3-13.8.8C38.8 88.9 9.3 77 4 74.5c-2.6-1.3-4-2.3-4-3.3V61s38.3-8.3 44.5-10.6c6.2-2.2 8.3-2.3 13.6-.4 5.3 1.9 36.7 7.6 41.9 9.5v10c0 1.1-1.2 2.2-3.9 3.6z" fill="#912626"/><path d="M96.1 63c-5.3 2.8-33 14.1-38.9 17.2-5.9 3.1-9.2 3-13.8.8C38.8 78.8 9.3 66.9 4 64.4c-5.3-2.5-5.4-4.3-.2-6.3s34.5-13.5 40.6-15.7c6.2-2.2 8.3-2.3 13.6-.4 5.3 1.9 32.7 12.9 37.9 14.8 5.3 1.9 5.5 3.4.2 6.2z" fill="#C6302B"/><path d="M96.1 56.7c-5.3 2.8-33 14.1-38.9 17.2-5.9 3.1-9.2 3-13.8.8C38.8 72.5 9.3 60.6 4 58.1c-2.6-1.3-4-2.3-4-3.3V44.7s38.3-8.3 44.5-10.6c6.2-2.2 8.3-2.3 13.6-.4 5.3 1.9 36.7 7.6 41.9 9.5v10c0 1-1.2 2.1-3.9 3.5z" fill="#912626"/><path d="M96.1 46.7c-5.3 2.8-33 14.1-38.9 17.2-5.9 3.1-9.2 3-13.8.8C38.8 62.5 9.3 50.6 4 48.1c-5.3-2.5-5.4-4.3-.2-6.3C9 39.7 38.3 28.2 44.5 26c6.2-2.2 8.3-2.3 13.6-.4 5.3 1.9 32.7 12.9 37.9 14.8 5.2 1.9 5.4 3.5.1 6.3z" fill="#C6302B"/><path d="M96.1 39.8c-5.3 2.8-33 14.1-38.9 17.2-5.9 3.1-9.2 3-13.8.8C38.8 55.6 9.3 43.7 4 41.2c-2.6-1.3-4-2.3-4-3.3V27.7s38.3-8.3 44.5-10.6c6.2-2.2 8.3-2.3 13.6-.4 5.3 1.9 36.7 7.6 41.9 9.5v10c0 1-1.2 2.1-3.9 3.6z" fill="#912626"/><path d="M96.1 29.7c-5.3 2.8-33 14.1-38.9 17.2-5.9 3.1-9.2 3-13.8.8C38.8 45.5 9.3 33.6 4 31.1c-5.3-2.5-5.4-4.3-.2-6.3S38.3 11.3 44.4 9.1c6.2-2.2 8.3-2.3 13.6-.4 5.3 1.9 32.7 12.9 37.9 14.8 5.3 1.9 5.5 3.4.2 6.2z" fill="#C6302B"/><path d="M62.2 19.9l-8.6.9-1.9 4.6-3.1-5.2-9.9-.9 7.4-2.7-2.2-4.1 6.9 2.7 6.5-2.1-1.8 4.2 6.7 2.6zm-11 22.4l-16-6.7 23-3.5-7 10.2zM28.9 22.4c6.8 0 12.3 2.1 12.3 4.8 0 2.6-5.5 4.8-12.3 4.8-6.8 0-12.3-2.1-12.3-4.8 0-2.6 5.6-4.8 12.3-4.8z" fill="#fff"/><path d="M72.4 21.1L86 26.5l-13.6 5.4V21.1z" fill="#621B1C"/><path d="M57.3 27.1l15.1-6v10.7l-1.5.6-13.6-5.3z" fill="#9A2928"/></g><defs><clipPath id="clip0"><path fill="#fff" d="M0 0h100v100H0z"/></clipPath></defs></svg>