<svg width="18" height="18" fill="none" xmlns="http://www.w3.org/2000/svg"><path fill-rule="evenodd" clip-rule="evenodd" d="M7.49 3.882a3.1 3.1 0 012.283-1.018c1.188 0 2.225.688 2.777 1.71a3.716 3.716 0 011.57-.346c2.143 0 3.88 1.82 3.88 4.067 0 2.246-1.737 4.068-3.88 4.068-.257 0-.513-.027-.765-.08-.486.901-1.412 1.51-2.476 1.51a2.73 2.73 0 01-1.24-.297c-.494 1.205-1.642 2.05-2.98 2.05-1.394 0-2.581-.917-3.037-2.202-.2.044-.406.067-.618.067C1.345 13.411 0 12 0 10.257 0 9.09.604 8.07 1.502 7.525a3.732 3.732 0 01-.287-1.443c0-2.003 1.565-3.627 3.496-3.627 1.133 0 2.14.56 2.78 1.427z" fill="#00A1E0"/><path d="M5.318 9.818a1.227 1.227 0 100-2.454 1.227 1.227 0 000 2.454zm4.092 0a1.227 1.227 0 100-2.454 1.227 1.227 0 000 2.454zm4.09 0a1.227 1.227 0 100-2.454 1.227 1.227 0 000 2.454z" fill="#fff"/></svg>