<svg width="100" height="100" fill="none" xmlns="http://www.w3.org/2000/svg"><path d="M25.64 61.088a8.819 8.819 0 01-8.82 8.82A8.819 8.819 0 018 61.088a8.819 8.819 0 018.82-8.82h8.82v8.82zm4.452 0a8.819 8.819 0 018.82-8.82 8.819 8.819 0 018.82 8.82V83.18a8.819 8.819 0 01-8.82 8.82 8.819 8.819 0 01-8.82-8.82V61.088z" fill="#E01E5A"/><path d="M38.912 25.64a8.819 8.819 0 01-8.82-8.82A8.819 8.819 0 0138.912 8a8.819 8.819 0 018.82 8.82v8.82h-8.82zm0 4.452a8.819 8.819 0 018.82 8.82 8.819 8.819 0 01-8.82 8.82H16.82A8.819 8.819 0 018 38.912a8.819 8.819 0 018.82-8.82h22.092z" fill="#36C5F0"/><path d="M74.36 38.912a8.819 8.819 0 018.82-8.82 8.819 8.819 0 018.82 8.82 8.819 8.819 0 01-8.82 8.82h-8.82v-8.82zm-4.452 0a8.819 8.819 0 01-8.82 8.82 8.819 8.819 0 01-8.82-8.82V16.82A8.819 8.819 0 0161.088 8a8.819 8.819 0 018.82 8.82v22.092z" fill="#2EB67D"/><path d="M61.088 74.36a8.819 8.819 0 018.82 8.82 8.819 8.819 0 01-8.82 8.82 8.819 8.819 0 01-8.82-8.82v-8.82h8.82zm0-4.452a8.819 8.819 0 01-8.82-8.82 8.819 8.819 0 018.82-8.82H83.18a8.819 8.819 0 018.82 8.82 8.819 8.819 0 01-8.82 8.82H61.088z" fill="#ECB22E"/></svg>