<svg width="100" height="100" fill="none" xmlns="http://www.w3.org/2000/svg"><g clip-path="url(#clip0)" fill="#2CB5E8"><path d="M85.94 76.21L64.78 64.02c-2.97-1.71-6.77-.69-8.5 2.27a6.127 6.127 0 00-.8 3.7v23.83c0 3.41 2.77 6.17 6.2 6.17 3.41 0 6.19-2.77 6.19-6.17v-13.7l11.86 6.83c2.97 1.72 6.78.69 8.5-2.27 1.71-2.97.69-6.76-2.29-8.47zM33.31 50.08c.04-2.2-1.13-4.25-3.04-5.36L9.11 32.54c-.92-.53-1.97-.81-3.03-.81-2.17 0-4.19 1.16-5.27 3.03-1.68 2.89-.68 6.6 2.23 8.28l12.2 7.02-12.2 7.03a5.99 5.99 0 00-2.83 3.68c-.42 1.56-.21 3.2.6 4.6a6.093 6.093 0 008.3 2.22L30.27 55.4c1.9-1.1 3.06-3.14 3.04-5.32zM13.91 23.9l21.16 12.19c2.47 1.43 5.51.96 7.46-.93a6.16 6.16 0 002-4.55V6.18c0-3.41-2.77-6.18-6.19-6.18-3.42 0-6.2 2.77-6.2 6.18v13.9l-12.02-6.92c-2.97-1.72-6.77-.7-8.5 2.26a6.213 6.213 0 002.29 8.48zM61.5 51.07c0 .47-.27 1.11-.6 1.46l-8.39 8.37c-.33.33-.99.6-1.46.6h-2.14c-.47 0-1.13-.27-1.46-.6l-8.4-8.37c-.33-.34-.6-.99-.6-1.46v-2.13c0-.48.27-1.12.6-1.46l8.4-8.38c.33-.33.99-.6 1.46-.6h2.14c.47 0 1.13.27 1.46.6l8.39 8.38c.33.33.6.98.6 1.46v2.13zm-7.49-1.03v-.09c0-.34-.2-.82-.44-1.07l-2.48-2.46c-.24-.25-.72-.45-1.07-.45h-.09c-.34 0-.82.2-1.07.45l-2.47 2.46c-.24.24-.44.72-.44 1.07v.09c0 .35.2.83.44 1.07l2.47 2.47c.25.24.73.44 1.07.44h.09c.35 0 .83-.2 1.07-.44l2.48-2.47c.24-.24.44-.71.44-1.07zm10.77-13.95L85.94 23.9c2.97-1.71 4-5.51 2.28-8.47-1.72-2.97-5.52-3.98-8.5-2.26L67.86 20V6.18c0-3.41-2.77-6.18-6.19-6.18-3.42 0-6.2 2.77-6.2 6.18v23.94c-.12 1.24.13 2.53.8 3.7a6.237 6.237 0 008.51 2.27zM39.32 63.3a6.184 6.184 0 00-4.24.72L13.91 76.21c-2.97 1.71-4 5.5-2.28 8.47a6.223 6.223 0 008.5 2.27l12.02-6.92v13.79c0 3.41 2.77 6.17 6.2 6.17 3.41 0 6.19-2.77 6.19-6.17V69.4a6.203 6.203 0 00-5.22-6.1zm59.84-28.61c-1.71-2.97-5.52-3.99-8.5-2.27L69.51 44.6a6.218 6.218 0 00-3.11 5.48 6.178 6.178 0 003.11 5.43L90.67 67.7c2.97 1.71 6.77.69 8.5-2.27 1.72-2.97.69-6.76-2.28-8.47l-11.98-6.9 11.98-6.9a6.182 6.182 0 002.27-8.47z"/></g><defs><clipPath id="clip0"><path fill="#fff" d="M0 0h100v100H0z"/></clipPath></defs></svg>