<svg width="100" height="100" fill="none" xmlns="http://www.w3.org/2000/svg"><circle cx="50" cy="50" r="50" fill="#635BFF"/><path fill-rule="evenodd" clip-rule="evenodd" d="M68 59.68c0 10.25-7.95 16.081-19.72 16.081a38.46 38.46 0 01-15.35-3.21v-13.56c4.749 2.588 10.669 4.52 15.35 4.52 3.166 0 5.265-.828 5.265-3.45C53.545 53.227 32 55.78 32 40.045 32 30.004 39.847 24 51.342 24c4.68 0 9.362.69 14.077 2.588v13.389a31.7 31.7 0 00-14.111-3.658c-2.96 0-4.956.863-4.956 3.106 0 6.384 21.648 3.347 21.648 20.29v-.034z" fill="#fff"/></svg>