<svg width="100" height="100" fill="none" xmlns="http://www.w3.org/2000/svg"><path d="M48 37.7C48 43.3 43.3 48 37.7 48c-5.6 0-10.3-4.7-10.3-10.3 0-5.6 4.6-10.4 10.3-10.4C43.4 27.3 48 32 48 37.7zM37.7 52c-5.7 0-10.3 4.7-10.3 10.3 0 5.6 4.6 10.4 10.3 10.4C43.4 72.7 48 68 48 62.3S43.3 52 37.7 52zm62.3-2c0 27.7-22.3 50-50 50S0 77.7 0 50 22.3 0 50 0s50 22.3 50 50zm-13.3 0c0-20.3-16.3-36.7-36.7-36.7-20.4 0-36.7 16.4-36.7 36.7 0 20.3 16.4 36.7 36.7 36.7 20.3 0 36.7-16.4 36.7-36.7zm-24.4 2C56.7 52 52 56.7 52 62.3c0 5.6 4.7 10.3 10.3 10.3 5.6 0 10.4-4.6 10.4-10.3C72.7 56.6 68 52 62.3 52zm0-24.7C56.7 27.3 52 32 52 37.7S56.7 48 62.3 48c5.6 0 10.3-4.7 10.3-10.3 0-5.6-4.6-10.4-10.3-10.4z" fill="#F22F46"/></svg>