<?xml version="1.0" encoding="utf-8"?>
<!-- Uploaded to: SVG Repo, www.svgrepo.com, Generator: SVG Repo Mixer Tools -->
<svg width="800px" height="800px" viewBox="0 0 1024 1024" class="icon"  version="1.1" xmlns="http://www.w3.org/2000/svg"><path d="M724.459968 13.158317c-18.806357 6.745758-172.119049 42.51872-178.864807 66.4355a825.639951 825.639951 0 0 0-13.695934 88.512528l8.58551 252.046065 61.325077 8.585511-5.110423-29.027203V169.946097l66.639917-11.856182 104.457047-6.950175 20.441693-30.662538S743.061908 6.412559 724.459968 13.158317zM422.945007 420.356827h61.325077V202.243971a154.74361 154.74361 0 0 0-98.733374-57.849989 646.161893 646.161893 0 0 0-108.95422 0L244.284616 220.845911l-13.287099 25.756532 25.552115 25.552115h168.643961zM371.840776 908.300022c0 49.468895 36.999463 100.573126 140.230009 100.573126s125.511991-75.021011 125.511991-75.021011V553.227827h-265.742v355.072195z" fill="#C0D36F" /><path d="M804.591402 106.168017L775.359782 38.097182A62.755995 62.755995 0 0 0 704.018276 1.506553l-128.169411 28.822786a73.794509 73.794509 0 0 0-57.849989 72.36359v307.851886h-11.856182v-190.720989a73.794509 73.794509 0 0 0-57.849989-72.36359L320.123295 118.637449a62.755995 62.755995 0 0 0-71.341506 36.59063L219.550169 223.298914a51.104231 51.104231 0 0 0 47.015892 71.137089h134.301918a3.270671 3.270671 0 0 1 3.270671 3.270671v112.838141H337.907567a42.314303 42.314303 0 0 0-42.314303 42.314303v78.904932A42.314303 42.314303 0 0 0 337.907567 574.078353h19.010774v343.42043a106.2968 106.2968 0 0 0 106.2968 106.2968h94.849452a106.2968 106.2968 0 0 0 106.2968-106.2968v-343.42043h19.010773a42.314303 42.314303 0 0 0 42.314303-42.314303v-78.904932a42.314303 42.314303 0 0 0-42.314303-42.314303h-61.325076V180.575777a3.270671 3.270671 0 0 1 3.27067-3.270671h134.301919a51.104231 51.104231 0 0 0 44.971723-71.137089zM400.459145 254.165869H266.157227a10.220846 10.220846 0 0 1-9.403178-14.104768l29.23162-68.070835a21.872611 21.872611 0 0 1 24.938864-12.673849l128.169411 28.822786a33.115541 33.115541 0 0 1 25.960949 32.502291v190.720989h-20.441692V298.524341a44.154055 44.154055 0 0 0-44.154056-44.358472z m221.792362 664.150582a65.413415 65.413415 0 0 1-65.413416 65.413415H462.60189a65.413415 65.413415 0 0 1-65.413415-65.413415v-343.42043h224.858615v343.42043z m61.325076-464.844082v78.904932a1.430918 1.430918 0 0 1-1.430918 1.430918l-346.07785-1.430918 1.430918-80.335851z m81.766769-321.138986a10.016429 10.016429 0 0 1-8.58551 4.497173h-134.301919a44.154055 44.154055 0 0 0-43.949638 43.745221v229.969038h-20.441692V102.692929a33.115541 33.115541 0 0 1 26.5742-32.50229l128.16941-28.822786a21.872611 21.872611 0 0 1 24.938865 12.673849l29.23162 68.070835a10.016429 10.016429 0 0 1-0.817668 9.403179z" fill="#25274B" /></svg>
